# This file uses centimeters as units for non-parametric coordinates.

mtllib Crystal_4.mtl
g default
v -0.056743 1.605383 -0.335103
v -0.174026 1.716360 -0.146023
v -0.249019 1.600210 0.173177
v -0.074478 1.464998 0.311014
v 0.204397 1.447738 0.300675
v 0.334835 1.572053 0.067456
v 0.211644 1.595844 -0.214359
v -0.433243 0.047723 -0.301398
v -0.445300 0.047723 -0.280296
v -0.190836 1.687391 -0.139066
v -0.179899 1.708037 -0.148638
v -0.178710 1.694916 -0.160135
v -0.089415 0.047723 -0.483379
v -0.115396 0.047723 -0.482781
v -0.082218 1.578213 -0.344344
v -0.062595 1.594639 -0.341875
v -0.056220 1.580145 -0.344921
v -0.454310 0.047723 0.111048
v -0.443353 0.047723 0.136761
v -0.252650 1.569572 0.188687
v -0.254078 1.591906 0.174701
v -0.263427 1.581842 0.162925
v -0.136754 0.047723 0.443356
v -0.111055 0.047723 0.454314
v -0.071457 1.432753 0.319423
v -0.078288 1.455980 0.314029
v -0.097071 1.445524 0.308285
v 0.280289 0.047723 0.445284
v 0.301389 0.047723 0.433231
v 0.218987 1.421254 0.300711
v 0.207247 1.435910 0.304928
v 0.197913 1.421145 0.312790
v 0.482790 0.047723 0.115392
v 0.483365 0.047723 0.089412
v 0.344318 1.557924 0.056115
v 0.340691 1.561363 0.068712
v 0.344054 1.537318 0.082179
v 0.318237 0.047723 -0.297889
v 0.297903 0.047723 -0.318248
v 0.210718 1.580727 -0.230954
v 0.216313 1.590650 -0.217942
v 0.231166 1.566859 -0.210737
v -0.087584 0.029216 -0.474555
v -0.113077 0.029216 -0.473969
v 0.292517 0.029216 -0.312503
v 0.312500 0.029216 -0.292522
v 0.474545 0.029216 0.087581
v 0.473971 0.029216 0.113081
v 0.295941 0.029216 0.425007
v 0.275254 0.029216 0.436838
v -0.108812 0.029216 0.445693
v -0.134038 0.029216 0.434949
v -0.434945 0.029216 0.134057
v -0.445704 0.029216 0.108817
v -0.436847 0.029216 -0.275253
v -0.425019 0.029216 -0.295951
vt 0.828157 0.961454
vt 0.811584 0.920689
vt 0.866837 0.980166
vt 0.837536 0.902875
vt 0.881347 0.891484
vt 0.900266 0.917995
vt 0.898847 0.960353
vt 0.747061 0.894073
vt 0.747538 0.892922
vt 0.749581 0.891161
vt 0.773802 0.903669
vt 0.775390 0.905075
vt 0.775195 0.905968
vt 0.777612 0.902863
vt 0.819764 0.891550
vt 0.821488 0.892629
vt 0.821683 0.893519
vt 0.822871 0.890235
vt 0.845122 0.876940
vt 0.847300 0.878061
vt 0.847620 0.879027
vt 0.848183 0.875571
vt 0.877060 0.874327
vt 0.878276 0.875910
vt 0.878251 0.877177
vt 0.879509 0.874339
vt 0.906389 0.886778
vt 0.907736 0.889355
vt 0.909207 0.888987
vt 0.707169 0.889944
vt 0.709193 0.892494
vt 0.709300 0.893051
vt 0.749025 0.727128
vt 0.776678 0.727128
vt 0.778409 0.727128
vt 0.808160 0.727128
vt 0.810334 0.727128
vt 0.845642 0.727128
vt 0.847815 0.727128
vt 0.877566 0.727128
vt 0.879297 0.727128
vt 0.906950 0.727128
vt 0.707729 0.727128
vt 0.710896 0.891431
vt 0.710353 0.727128
vt 0.747038 0.727128
vt 0.746765 0.891368
vt 0.749035 0.725145
vt 0.707728 0.725145
vt 0.945061 0.889944
vt 0.947085 0.892494
vt 0.947192 0.893051
vt 0.907709 0.890501
vt 0.945621 0.727128
vt 0.945621 0.725145
vt 0.908927 0.725145
vt 0.906939 0.725145
vt 0.879286 0.725145
vt 0.877556 0.725145
vt 0.847810 0.725145
vt 0.845638 0.725145
vt 0.810339 0.725145
vt 0.808165 0.725145
vt 0.778419 0.725145
vt 0.776689 0.725145
vt 0.747048 0.725145
vt 0.710354 0.725145
vt 0.908937 0.727128
vn -0.475787 0.602928 -0.640394
vn -0.475787 0.602928 -0.640394
vn -0.475787 0.602928 -0.640394
vn -0.475787 0.602928 -0.640394
vn -0.475787 0.602928 -0.640394
vn -0.475787 0.602928 -0.640394
vn -0.834842 0.550488 0.001332
vn -0.834842 0.550488 0.001332
vn -0.834842 0.550488 0.001332
vn -0.986396 0.149128 -0.069166
vn -0.837254 0.546738 0.009138
vn -0.834842 0.550488 0.001332
vn -0.351899 0.400028 0.846254
vn -0.351899 0.400028 0.846253
vn -0.351899 0.400028 0.846254
vn -0.351899 0.400028 0.846253
vn -0.351899 0.400028 0.846253
vn -0.351899 0.400028 0.846253
vn 0.048520 0.326423 0.943978
vn 0.048520 0.326423 0.943978
vn -0.012955 0.102633 0.994635
vn 0.055844 0.103568 0.993053
vn 0.400541 0.395168 0.826686
vn 0.188481 0.757039 0.625593
vn 0.839316 0.102184 0.533955
vn 0.883460 0.107577 0.455988
vn 0.799810 0.523370 0.293918
vn 0.275051 0.922193 0.271859
vn 0.923534 0.086614 -0.373608
vn 0.769951 0.569466 -0.287898
vn 0.769951 0.569466 -0.287898
vn 0.769951 0.569466 -0.287898
vn -0.604604 0.124048 -0.786808
vn -0.594493 0.115544 -0.795756
vn -0.659703 0.121711 -0.741605
vn -0.663615 0.130438 -0.736615
vn -0.980440 0.147810 -0.129961
vn -0.982822 0.140012 -0.120238
vn -0.988985 0.135270 -0.060090
vn -0.705878 0.078049 0.704020
vn -0.694763 0.068911 0.715930
vn -0.645619 0.068524 0.760579
vn -0.654504 0.074958 0.752334
vn -0.006287 0.089622 0.995956
vn 0.058937 0.091039 0.994102
vn 0.836959 0.089947 0.539822
vn 0.874671 0.088242 0.476617
vn 0.929870 0.071264 -0.360919
vn 0.907171 0.069966 -0.414905
vn 0.903982 0.076394 -0.420690
vn 0.410145 0.082484 -0.908283
vn 0.418373 0.069168 -0.905638
vn 0.363857 0.070199 -0.928806
vn 0.367132 0.075876 -0.927069
vn -0.003029 0.996339 0.085437
vn 0.335439 0.907978 -0.251112
vn 0.232483 0.967464 0.099828
vn 0.123129 0.887750 0.443552
vn 0.133840 0.804574 0.578574
vn -0.000000 -1.000000 0.000000
vn -0.000000 -1.000000 0.000000
vn -0.000000 -1.000000 0.000000
vn -0.000000 -1.000000 0.000000
vn -0.000000 -1.000000 0.000000
vn -0.000000 -1.000000 0.000000
vn -0.000000 -1.000000 0.000000
vn -0.000000 -1.000000 0.000000
vn -0.000000 -1.000000 0.000000
vn -0.000000 -1.000000 0.000000
vn -0.000000 -1.000000 0.000000
vn -0.000000 -1.000000 0.000000
vn -0.000000 -1.000000 0.000000
vn -0.000000 -1.000000 0.000000
vn 0.352311 0.509658 -0.784937
vn 0.352311 0.509658 -0.784937
vn 0.352311 0.509658 -0.784937
vn 0.352311 0.509658 -0.784937
vn 0.363153 0.506420 -0.782086
vn -0.872491 0.274879 -0.403981
vn -0.035923 0.190100 -0.981107
vn -0.347941 0.113736 0.930592
vn 0.346413 -0.375494 -0.859652
vn -0.421967 -0.432422 -0.796841
vn 0.382783 -0.373637 -0.844910
vn 0.845038 -0.373309 -0.382819
vn 0.859768 -0.375162 -0.346486
vn 0.796817 -0.432459 0.421974
vn 0.769022 -0.434596 0.468756
vn 0.042979 -0.424616 0.904353
vn -0.003417 -0.422465 0.906373
vn -0.636804 -0.394318 0.662566
vn -0.662552 -0.394294 0.636834
vn -0.906455 -0.422288 0.003466
vn -0.904421 -0.424473 -0.042954
vn -0.468732 -0.434582 -0.769044
s off
g Crystal4
usemtl initialShadingGroup
f 1/8/1 16/9/2 15/10/3 12/11/4 11/12/5 2/13/6
s 1
f 2/13/7 11/12/8 10/14/9 22/15/10 21/16/11 3/17/12
s off
f 3/17/13 21/16/14 20/18/15 27/19/16 26/20/17 4/21/18
s 1
f 4/21/19 26/20/20 25/22/21 32/23/22 31/24/23 5/25/24
f 5/25/24 31/24/23 30/26/25 37/27/26 36/28/27 6/53/28
f 6/53/28 36/28/27 35/29/29 42/50/30 41/51/31 7/52/32
f 15/10/33 14/33/34 8/34/35 12/11/36
f 10/14/37 9/35/38 18/36/39 22/15/10
f 20/18/40 19/37/41 23/38/42 27/19/43
f 25/22/21 24/39/44 28/40/45 32/23/22
f 30/26/25 29/41/46 33/42/47 37/27/26
f 35/29/29 34/68/48 38/54/49 42/50/50
f 40/44/51 39/45/52 13/46/53 17/47/54
f 7/1/55 1/2/56 6/3/28
f 1/2/56 2/4/57 6/3/28
f 2/4/57 3/5/58 6/3/28
f 3/5/58 4/6/59 6/3/28
f 4/6/59 5/7/24 6/3/28
s off
f 44/48/60 43/66/61 45/67/62 46/55/63 47/56/64 48/57/65 49/58/66 50/59/67 51/60/68 52/61/69 53/62/70 54/63/71 55/64/72 56/65/73
s 1
f 17/47/74 16/9/75 1/8/76 7/32/77 41/31/78 40/44/51
f 8/34/35 9/35/38 10/14/37 12/11/36
f 13/46/53 14/33/34 15/10/33 17/47/54
f 18/36/39 19/37/41 20/18/40 22/15/10
f 23/38/42 24/39/44 25/22/21 27/19/43
f 28/40/45 29/41/46 30/26/25 32/23/22
f 33/42/47 34/68/48 35/29/29 37/27/26
f 38/43/49 39/45/52 40/44/51 42/30/50
f 10/14/37 11/12/79 12/11/36
f 15/10/33 16/9/80 17/47/54
f 20/18/40 21/16/11 22/15/10
f 25/22/21 26/20/81 27/19/43
f 30/26/25 31/24/23 32/23/22
f 35/29/29 36/28/27 37/27/26
f 40/44/51 41/31/78 42/30/50
f 14/33/34 13/46/53 43/66/82 44/48/83
f 13/46/53 39/45/52 45/67/84 43/66/82
f 39/45/52 38/43/49 46/49/85 45/67/84
f 38/54/49 34/68/48 47/56/86 46/55/85
f 34/68/48 33/42/47 48/57/87 47/56/86
f 33/42/47 29/41/46 49/58/88 48/57/87
f 29/41/46 28/40/45 50/59/89 49/58/88
f 28/40/45 24/39/44 51/60/90 50/59/89
f 24/39/44 23/38/42 52/61/91 51/60/90
f 23/38/42 19/37/41 53/62/92 52/61/91
f 19/37/41 18/36/39 54/63/93 53/62/92
f 18/36/39 9/35/38 55/64/94 54/63/93
f 9/35/38 8/34/35 56/65/95 55/64/94
f 8/34/35 14/33/34 44/48/83 56/65/95
