# This file uses centimeters as units for non-parametric coordinates.

mtllib Crystal_2.mtl
g default
v 0.076448 1.295252 0.133057
v 0.079312 1.272055 0.137347
v 0.086054 1.272055 0.133763
v 0.083578 1.295252 0.129274
v 0.143088 1.295252 0.015343
v 0.147852 1.272055 0.015476
v 0.147290 1.272055 0.007246
v 0.142488 1.295252 0.006651
v 0.066638 1.295252 -0.117710
v 0.068524 1.272055 -0.121861
v 0.061234 1.272055 -0.126522
v 0.058924 1.295252 -0.122631
v -0.076450 1.295252 -0.133051
v -0.079314 1.272055 -0.137343
v -0.086057 1.272055 -0.133766
v -0.083566 1.295252 -0.129276
v -0.143090 1.295252 -0.015347
v -0.147840 1.272055 -0.015483
v -0.147277 1.272055 -0.007243
v -0.142491 1.295252 -0.006649
v -0.066641 1.295252 0.117706
v -0.068527 1.272055 0.121860
v -0.061237 1.272055 0.126516
v -0.058926 1.295252 0.122629
v 0.064414 -0.007598 0.100865
v 0.060065 -0.007598 0.103196
v 0.110892 -0.007598 0.005884
v 0.111259 -0.007598 0.011215
v 0.046461 -0.007598 -0.094991
v 0.051208 -0.007598 -0.091962
v -0.064417 -0.007598 -0.100868
v -0.060067 -0.007598 -0.103193
v -0.110894 -0.007598 -0.005880
v -0.111246 -0.007598 -0.011219
v -0.046464 -0.007598 0.094991
v -0.051211 -0.007598 0.091962
v 0.004667 1.453172 0.007641
v 0.004769 1.451054 0.009945
v 0.006732 1.451054 0.008913
v 0.008329 1.453172 0.000641
v 0.010348 1.451054 0.001993
v 0.010170 1.451054 -0.000408
v 0.003661 1.453172 -0.007010
v 0.005578 1.451054 -0.007961
v 0.003453 1.451054 -0.009312
v -0.004670 1.453172 -0.007641
v -0.004771 1.451054 -0.009941
v -0.006734 1.451054 -0.008913
v -0.008332 1.453172 -0.000641
v -0.010350 1.451054 -0.001989
v -0.010173 1.451054 0.000408
v -0.005565 1.451054 0.007961
v -0.003456 1.451054 0.009313
v -0.003663 1.453172 0.007004
vt 0.976453 0.628063
vt 0.914049 0.717308
vt 0.936728 0.686316
vt 0.936651 0.630417
vt 0.978363 0.627950
vt 0.978050 0.634561
vt 0.891963 0.675608
vt 0.893341 0.673725
vt 0.933586 0.681441
vt 0.934587 0.630539
vt 0.919404 0.267783
vt 0.949572 0.265998
vt 0.950804 0.265926
vt 0.891491 0.676048
vt 0.891452 0.675291
vt 0.892783 0.673336
vt 0.893455 0.673161
vt 0.913538 0.639174
vt 0.912284 0.631821
vt 0.918060 0.267862
vt 0.901159 0.268898
vt 0.835210 0.639021
vt 0.834626 0.632433
vt 0.874496 0.632868
vt 0.872346 0.639335
vt 0.850601 0.675433
vt 0.832558 0.632411
vt 0.842775 0.269480
vt 0.872994 0.269810
vt 0.876408 0.632906
vt 0.875930 0.639486
vt 0.889989 0.671440
vt 0.888612 0.673323
vt 0.810820 0.638719
vt 0.810216 0.632130
vt 0.841428 0.269466
vt 0.888623 0.673913
vt 0.874227 0.269806
vt 0.890590 0.671023
vt 0.889296 0.673734
vt 0.890629 0.671780
vt 0.824496 0.269318
vt 0.889814 0.675533
vt 0.892348 0.671526
vt 0.889779 0.676221
vt 0.889263 0.675774
vt 0.892383 0.670838
vt 0.892899 0.671285
vt 0.909582 0.716700
vt 0.870307 0.708674
vt 0.868432 0.707064
vt 0.911024 0.638410
vt 0.775374 0.637345
vt 0.774353 0.630720
vt 0.807885 0.632004
vt 0.807671 0.638582
vt 0.797570 0.268323
vt 0.822983 0.269296
vt 0.909947 0.631859
vt 0.899647 0.268983
vt 0.848401 0.670223
vt 0.833022 0.638997
vt 0.935509 0.637077
vt 0.937694 0.636948
vt 0.976031 0.634680
vn -0.030046 0.518148 0.854763
vn 0.727931 0.540550 0.421809
vn 0.675736 0.629682 0.383251
vn -0.038243 0.608818 0.792388
vn -0.050358 -0.022087 0.998487
vn -0.096473 0.522646 0.847074
vn -0.102731 -0.021819 0.994470
vn 0.872153 -0.023273 0.488679
vn -0.051022 -0.025875 0.998362
vn 0.872324 -0.027298 0.488166
vn 0.899140 -0.023090 0.437051
vn 0.759219 0.543280 0.358377
vn 0.759325 0.492025 -0.425837
vn 0.705147 0.580646 -0.406963
vn 0.702837 0.627828 0.334442
vn 0.865212 -0.020520 -0.500986
vn 0.898934 -0.027165 0.437242
vn 0.864839 -0.024061 -0.501472
vn 0.841433 -0.020430 -0.539975
vn 0.726194 0.493817 -0.478318
vn 0.096399 0.522675 -0.847064
vn 0.086803 0.606250 -0.790522
vn 0.684473 0.579874 -0.441862
vn 0.102701 -0.021817 -0.994473
vn 0.841619 -0.023998 -0.539538
vn 0.102423 -0.025684 -0.994409
vn 0.050358 -0.022084 -0.998487
vn 0.030069 0.518151 -0.854761
vn -0.727926 0.540544 -0.421824
vn -0.675730 0.629660 -0.383298
vn 0.038256 0.608803 -0.792399
vn -0.872188 -0.023272 -0.488616
vn 0.051022 -0.025875 -0.998362
vn -0.872359 -0.027299 -0.488103
vn -0.899174 -0.023089 -0.436982
vn -0.759199 0.543282 -0.358416
vn -0.759312 0.492012 0.425876
vn -0.705093 0.580663 0.407032
vn -0.702822 0.627814 -0.334501
vn -0.865269 -0.020521 0.500888
vn -0.898967 -0.027165 -0.437173
vn -0.864897 -0.024058 0.501374
vn -0.841445 -0.020430 0.539957
vn -0.726221 0.493780 0.478314
vn -0.086914 0.606258 0.790505
vn -0.684473 0.579876 0.441860
vn -0.841631 -0.023994 0.539520
vn -0.102452 -0.025682 0.994406
vn 0.052692 0.993491 0.100992
vn 0.110826 0.993794 -0.009575
vn -0.059700 0.994015 0.091485
vn 0.059605 0.994022 -0.091471
vn -0.052732 0.993492 -0.100964
vn -0.110868 0.993789 0.009618
s 1
g Crystal2
usemtl initialShadingGroup
f 1/2/1 4/49/2 39/14/3 38/7/4
f 2/1/5 1/65/1 24/64/6 23/4/7
f 3/5/8 2/1/5 26/12/9 25/13/10
f 4/53/2 3/54/8 6/55/11 5/56/12
f 5/50/12 8/51/13 42/46/14 41/45/15
f 7/35/16 6/55/11 28/58/17 27/42/18
f 8/34/13 7/35/16 10/27/19 9/62/20
f 9/26/20 12/61/21 45/33/22 44/37/23
f 11/23/24 10/27/19 30/36/25 29/28/26
f 12/22/21 11/23/24 14/24/27 13/25/28
f 13/25/28 16/31/29 48/39/30 47/32/31
f 15/30/32 14/24/27 32/29/33 31/38/34
f 16/31/29 15/30/32 18/59/35 17/52/36
f 17/52/36 20/18/37 51/48/38 50/47/39
f 19/19/40 18/59/35 34/60/41 33/21/42
f 20/18/37 19/19/40 22/10/43 21/63/44
f 21/9/44 24/3/6 53/8/45 52/17/46
f 23/4/7 22/10/43 36/20/47 35/11/48
f 37/15/49 39/14/3 41/45/15 40/43/50
f 38/7/4 37/15/49 54/16/51 53/8/45
f 40/43/50 42/46/14 44/37/23 43/40/52
f 43/40/52 45/33/22 47/32/31 46/41/53
f 46/41/53 48/39/30 50/47/39 49/44/54
f 49/44/54 51/48/38 52/17/46 54/16/51
f 25/57/10 28/58/17 6/55/11 3/54/8
f 27/42/18 30/36/25 10/27/19 7/35/16
f 29/28/26 32/29/33 14/24/27 11/23/24
f 31/38/34 34/60/41 18/59/35 15/30/32
f 33/21/42 36/20/47 22/10/43 19/19/40
f 35/11/48 26/12/9 2/1/5 23/4/7
f 54/16/51 37/15/49 40/43/50 43/40/52 46/41/53 49/44/54
f 24/3/6 1/2/1 38/7/4 53/8/45
f 4/49/2 5/50/12 41/45/15 39/14/3
f 8/51/13 9/26/20 44/37/23 42/46/14
f 12/61/21 13/25/28 47/32/31 45/33/22
f 16/31/29 17/52/36 50/47/39 48/39/30
f 20/18/37 21/9/44 52/17/46 51/48/38
f 1/65/1 2/1/5 3/5/8 4/6/2
f 5/56/12 6/55/11 7/35/16 8/34/13
f 9/62/20 10/27/19 11/23/24 12/22/21
f 13/25/28 14/24/27 15/30/32 16/31/29
f 17/52/36 18/59/35 19/19/40 20/18/37
f 21/63/44 22/10/43 23/4/7 24/64/6
f 37/15/49 38/7/4 39/14/3
f 40/43/50 41/45/15 42/46/14
f 43/40/52 44/37/23 45/33/22
f 46/41/53 47/32/31 48/39/30
f 49/44/54 50/47/39 51/48/38
f 52/17/46 53/8/45 54/16/51
