# This file uses centimeters as units for non-parametric coordinates.

mtllib Crystal_3.mtl
g default
v 0.235695 0.912172 -0.277078
v -0.077282 0.890124 -0.354344
v -0.326957 0.828164 -0.157603
v -0.326397 0.756036 0.167249
v -0.081519 0.691762 0.357144
v 0.226394 0.758077 0.284459
v 0.360710 0.907084 -0.001919
v -0.111646 0.000000 -0.519466
v -0.139709 0.000000 -0.513065
v -0.097403 0.874670 -0.361318
v -0.080042 0.885683 -0.360350
v -0.069285 0.878685 -0.367640
v 0.333562 0.000000 -0.405025
v 0.311075 0.000000 -0.422978
v 0.221939 0.897678 -0.301620
v 0.236465 0.906441 -0.286013
v 0.244458 0.898709 -0.283650
v -0.478690 0.000000 -0.242727
v -0.491185 0.000000 -0.216796
v -0.343177 0.811820 -0.149207
v -0.332535 0.823734 -0.160112
v -0.330471 0.818365 -0.175046
v -0.491181 0.000000 0.216805
v -0.478697 0.000000 0.242724
v -0.330975 0.738836 0.175341
v -0.332175 0.751225 0.166687
v -0.343207 0.745648 0.149353
v -0.139705 0.000000 0.513063
v -0.111633 0.000000 0.519459
v -0.069187 0.677634 0.367484
v -0.082712 0.685453 0.362163
v -0.097265 0.677576 0.361126
v 0.311071 0.000000 0.422983
v 0.333557 0.000000 0.405021
v 0.244025 0.750541 0.283150
v 0.230297 0.752375 0.289488
v 0.221728 0.739548 0.301387
v 0.521686 0.000000 0.014390
v 0.521692 0.000000 -0.014392
v 0.373960 0.899020 -0.014314
v 0.367699 0.904313 -0.001149
v 0.374175 0.891622 0.014448
v 0.327641 -0.009872 -0.397498
v 0.305567 -0.009872 -0.415108
v 0.327652 -0.009872 0.397495
v 0.305563 -0.009872 0.415113
v -0.109283 -0.009872 0.509796
v -0.136821 -0.009872 0.503523
v -0.469511 -0.009872 0.238211
v -0.469504 -0.009872 -0.238210
v -0.136825 -0.009872 -0.503528
v -0.109281 -0.009872 -0.509803
vt 0.124793 0.353837
vt 0.124129 0.353202
vt 0.123113 0.350540
vt 0.120911 0.312310
vt 0.121722 0.310807
vt 0.122237 0.310950
vt 0.120446 0.308786
vt 0.113918 0.271800
vt 0.114541 0.270078
vt 0.115054 0.270084
vt 0.113160 0.268368
vt 0.105488 0.231873
vt 0.106135 0.229443
vt 0.106693 0.229078
vt 0.104699 0.228452
vt 0.097597 0.191461
vt 0.098510 0.189710
vt 0.099242 0.189730
vt 0.097604 0.187939
vt 0.104781 0.149722
vt 0.106268 0.147953
vt 0.106056 0.146072
vt 0.123882 0.395244
vt 0.124203 0.395138
vt 0.019048 0.350982
vt 0.019048 0.311682
vt 0.019048 0.309198
vt 0.019048 0.271248
vt 0.019048 0.268831
vt 0.019048 0.231424
vt 0.019048 0.229008
vt 0.019048 0.191058
vt 0.019048 0.188573
vt 0.019048 0.149275
vt 0.019048 0.146696
vt 0.123268 0.393551
vt 0.019048 0.394081
vt 0.019048 0.353561
vt 0.123232 0.354188
vt 0.017903 0.353561
vt 0.225326 0.191188
vt 0.017903 0.350982
vt 0.017903 0.149276
vt 0.017903 0.146695
vt 0.017903 0.188574
vt 0.193750 0.231261
vt 0.017903 0.191058
vt 0.017903 0.229008
vt 0.017903 0.309198
vt 0.141611 0.231171
vt 0.122799 0.142448
vt 0.212925 0.140956
vt 0.111133 0.191868
vt 0.168762 0.120891
vt 0.017903 0.271248
vt 0.017903 0.311683
vt 0.124203 0.104606
vt 0.106929 0.147970
vt 0.019048 0.106176
vt 0.019048 0.103549
vt 0.123269 0.103018
vt 0.123882 0.104712
vt 0.122411 0.106723
vn 0.080037 0.816543 -0.571710
vn 0.080037 0.816543 -0.571710
vn 0.080037 0.816543 -0.571710
vn 0.080037 0.816543 -0.571710
vn 0.080037 0.816543 -0.571710
vn 0.080037 0.816543 -0.571710
vn -0.481520 0.798993 -0.360206
vn -0.481520 0.798993 -0.360206
vn -0.481520 0.798993 -0.360206
vn -0.642633 0.187538 -0.742867
vn -0.489900 0.794193 -0.359522
vn -0.481520 0.798993 -0.360206
vn -0.648742 0.742833 0.165328
vn -0.648742 0.742833 0.165328
vn -0.648742 0.742832 0.165328
vn -0.648742 0.742832 0.165328
vn -0.648742 0.742832 0.165328
vn -0.648742 0.742832 0.165328
vn -0.421550 0.550308 0.720733
vn -0.421550 0.550308 0.720733
vn -0.622357 0.214475 0.752777
vn -0.573962 0.212450 0.790843
vn -0.186476 0.614793 0.766327
vn -0.115153 0.853669 0.507926
vn 0.174885 0.208628 0.962232
vn 0.236092 0.211836 0.948360
vn 0.165972 0.714851 0.679294
vn -0.081345 0.944853 0.317233
vn 0.860585 0.178074 0.477161
vn 0.306703 0.775681 0.551590
vn 0.306703 0.775681 0.551591
vn 0.306703 0.775681 0.551590
vn 0.247121 0.155903 -0.956361
vn 0.247982 0.144390 -0.957944
vn 0.183043 0.145562 -0.972269
vn 0.189380 0.156305 -0.969383
vn -0.594874 0.171164 -0.785384
vn -0.599396 0.158324 -0.784639
vn -0.650221 0.160849 -0.742523
vn -0.981684 0.189105 -0.023140
vn -0.981878 0.188726 -0.017275
vn -0.980597 0.189927 0.048552
vn -0.981211 0.188965 0.038944
vn -0.625273 0.189151 0.757136
vn -0.574492 0.188148 0.796592
vn 0.172164 0.181311 0.968239
vn 0.235185 0.179130 0.955301
vn 0.859976 0.162981 0.483610
vn 0.891219 0.161658 0.423788
vn 0.897268 0.162265 0.410586
vn 0.900270 0.162271 -0.403957
vn 0.905207 0.148737 -0.398093
vn 0.876015 0.147997 -0.459015
vn 0.877821 0.148661 -0.455335
vn -0.465032 0.855669 0.227105
vn -0.171429 0.950794 0.258073
vn -0.086186 0.966739 0.240806
vn -0.056538 0.972719 0.224991
vn -0.054647 0.969021 0.240856
vn 0.556316 0.791386 -0.253417
vn 0.556316 0.791386 -0.253417
vn 0.556316 0.791386 -0.253417
vn 0.556316 0.791386 -0.253417
vn 0.564581 0.788570 -0.243735
vn -0.257123 0.478894 -0.839374
vn 0.570529 0.364648 -0.735886
vn -0.851958 0.241896 0.464385
vn 0.447616 -0.696462 -0.560875
vn 0.181910 -0.672941 -0.716979
vn 0.181895 -0.672979 0.716948
vn 0.447774 -0.696277 0.560978
vn 0.148140 -0.673557 0.724138
vn -0.439021 -0.687342 0.578638
vn -0.454850 -0.683959 0.570361
vn -0.439012 -0.687382 -0.578597
vn -0.454837 -0.684002 -0.570320
vn 0.148180 -0.673506 -0.724177
s off
g Crystal3
usemtl initialShadingGroup
f 1/1/1 16/2/2 15/3/3 12/4/4 11/5/5 2/6/6
s 1
f 2/6/7 11/5/8 10/7/9 22/8/10 21/9/11 3/10/12
s off
f 3/10/13 21/9/14 20/11/15 27/12/16 26/13/17 4/14/18
s 1
f 4/14/19 26/13/20 25/15/21 32/16/22 31/17/23 5/18/24
f 5/18/24 31/17/23 30/19/25 37/20/26 36/21/27 6/58/28
f 6/58/28 36/21/27 35/22/29 42/63/30 41/62/31 7/57/32
f 15/3/33 14/25/34 8/26/35 12/4/36
f 10/7/37 9/27/38 18/28/39 22/8/10
f 20/11/40 19/29/41 23/30/42 27/12/43
f 25/15/21 24/31/44 28/32/45 32/16/22
f 30/19/25 29/33/46 33/34/47 37/20/26
f 35/22/29 34/35/48 38/59/49 42/63/50
f 40/36/51 39/37/52 13/38/53 17/39/54
f 7/54/55 1/52/56 6/51/28
f 1/52/56 2/41/57 6/51/28
f 2/41/57 3/46/58 6/51/28
f 3/46/58 4/50/59 6/51/28
f 4/50/59 5/53/24 6/51/28
f 17/39/60 16/2/61 1/1/62 7/24/63 41/23/64 40/36/51
f 8/26/35 9/27/38 10/7/37 12/4/36
f 13/38/53 14/25/34 15/3/33 17/39/54
f 18/28/39 19/29/41 20/11/40 22/8/10
f 23/30/42 24/31/44 25/15/21 27/12/43
f 28/32/45 29/33/46 30/19/25 32/16/22
f 33/34/47 34/35/48 35/22/29 37/20/26
f 38/59/49 39/60/52 40/61/51 42/63/50
f 10/7/37 11/5/65 12/4/36
f 15/3/33 16/2/66 17/39/54
f 20/11/40 21/9/11 22/8/10
f 25/15/21 26/13/67 27/12/43
f 30/19/25 31/17/23 32/16/22
f 35/22/29 36/21/27 37/20/26
f 40/61/51 41/62/64 42/63/50
f 14/25/34 13/38/53 43/40/68 44/42/69
f 34/35/48 33/34/47 46/43/70 45/44/71
f 33/34/47 29/33/46 47/45/72 46/43/70
f 29/33/46 28/32/45 48/47/73 47/45/72
f 28/32/45 24/31/44 49/48/74 48/47/73
f 18/28/39 9/27/38 51/49/75 50/55/76
f 9/27/38 8/26/35 52/56/77 51/49/75
f 8/26/35 14/25/34 44/42/69 52/56/77
