# This file uses centimeters as units for non-parametric coordinates.

mtllib flat stones A.mtl
g default
v 0.665857 -0.120665 -0.673182
v -0.191223 -0.120665 -0.938898
v -0.990816 -0.120665 -0.331354
v -0.943487 -0.120665 0.589675
v -0.180154 -0.120665 1.183860
v 0.665857 -0.120665 1.048447
v 1.042367 -0.120665 0.208932
v 0.665857 0.133181 -0.672819
v -0.191076 0.133181 -0.938244
v -0.990042 0.133181 -0.330972
v -0.942891 0.133181 0.589675
v -0.180154 0.133181 1.183860
v 0.665857 0.133181 1.048447
v 1.042367 0.133181 0.208932
v 0.030482 -0.120665 0.172182
v 0.030668 0.133181 0.172417
v -0.248164 -0.133181 -1.109249
v -0.890093 -0.133181 -1.213394
v -1.464995 -0.133181 -0.766235
v -1.519099 -0.133181 -0.113657
v -0.975194 -0.133181 0.279781
v -0.284318 -0.133181 0.142289
v 0.021603 -0.133181 -0.500276
v -0.248164 0.051262 -1.109249
v -0.890093 0.051262 -1.213394
v -1.464995 0.051262 -0.766235
v -1.519099 0.051262 -0.113657
v -0.975194 0.051262 0.279781
v -0.284318 0.051262 0.142062
v 0.021603 0.051262 -0.500276
v -0.794599 -0.133181 -0.494929
v -0.794599 0.051262 -0.494929
v 1.313483 -0.133181 -0.596257
v 0.799260 -0.133181 -1.000486
v 0.193387 -0.133181 -0.884578
v -0.070155 -0.133181 -0.255065
v 0.257091 -0.133181 0.414814
v 0.878697 -0.133181 0.542902
v 1.348836 -0.133181 0.063360
v 1.313483 0.051262 -0.596257
v 0.799260 0.051262 -1.000486
v 0.193387 0.051262 -0.884578
v -0.070155 0.051262 -0.255222
v 0.257091 0.051262 0.414356
v 0.878697 0.051262 0.542373
v 1.348836 0.051262 0.063098
v 0.677550 -0.133181 -0.243892
v 0.677550 0.051262 -0.244129
v -0.360678 -0.105194 0.164523
v -0.779078 -0.105194 -0.127673
v -1.247353 -0.105194 0.024363
v -1.385666 -0.105194 0.444195
v -1.109234 -0.105194 0.828568
v -0.638543 -0.105194 0.919062
v -0.306556 -0.105194 0.650169
v -0.360678 0.023275 0.164147
v -0.779078 0.023275 -0.127673
v -1.247353 0.023275 0.024363
v -1.385666 0.023275 0.444195
v -1.109234 0.023275 0.828568
v -0.638543 0.023275 0.918722
v -0.306556 0.023275 0.649583
v -0.846243 -0.105194 0.415044
v -0.846243 0.023275 0.414899
vt 0.746827 0.778257
vt 0.433219 0.863801
vt 0.433219 0.863801
vt 0.746827 0.778257
vt 0.181725 0.624114
vt 0.181725 0.624114
vt 0.181725 0.239686
vt 0.181725 0.239686
vt 0.433219 0.000000
vt 0.433219 0.000000
vt 0.746827 0.085543
vt 0.746827 0.085543
vt 0.886395 0.431900
vt 0.886395 0.431900
vt 0.515705 0.431900
vt 0.515705 0.431900
vt 0.410600 0.937845
vt 0.182734 1.000000
vt 0.182734 1.000000
vt 0.410600 0.937845
vt 0.000000 0.825845
vt 0.000000 0.825845
vt 0.000000 0.546522
vt 0.000000 0.546522
vt 0.182734 0.372367
vt 0.182734 0.372367
vt 0.410600 0.434522
vt 0.410600 0.434522
vt 0.512009 0.686183
vt 0.512009 0.686183
vt 0.242668 0.686183
vt 0.242668 0.686183
vt 0.986895 0.763724
vt 0.796278 0.925360
vt 0.796278 0.925360
vt 0.986895 0.763724
vt 0.571687 0.848033
vt 0.571687 0.848033
vt 0.482244 0.589973
vt 0.482244 0.589973
vt 0.595301 0.345503
vt 0.595301 0.345503
vt 0.825724 0.298715
vt 0.825724 0.298715
vt 1.000000 0.484841
vt 1.000000 0.484841
vt 0.751161 0.608021
vt 0.751161 0.608021
vt 0.385415 0.424241
vt 0.252645 0.536825
vt 0.252645 0.536825
vt 0.385415 0.424241
vt 0.096211 0.482965
vt 0.096211 0.482965
vt 0.033912 0.303218
vt 0.033912 0.303218
vt 0.112659 0.132938
vt 0.112659 0.132938
vt 0.273156 0.100349
vt 0.273156 0.100349
vt 0.394543 0.229990
vt 0.394543 0.229990
vt 0.221220 0.315789
vt 0.221220 0.315789
vn 0.295995 0.001827 -0.955188
vn 0.295995 0.001827 -0.955188
vn 0.295995 0.001827 -0.955188
vn 0.295995 0.001827 -0.955188
vn -0.605053 0.002721 -0.796181
vn -0.605053 0.002721 -0.796181
vn -0.605053 0.002721 -0.796181
vn -0.605053 0.002721 -0.796181
vn -0.998683 0.002656 0.051233
vn -0.998683 0.002656 0.051233
vn -0.998683 0.002656 0.051233
vn -0.998683 0.002656 0.051233
vn -0.614400 0.000721 0.788994
vn -0.614400 0.000721 0.788994
vn -0.614400 0.000721 0.788994
vn -0.614400 0.000721 0.788994
vn 0.158049 0.000000 0.987431
vn 0.158049 0.000000 0.987431
vn 0.158049 0.000000 0.987431
vn 0.158049 0.000000 0.987431
vn 0.912438 0.000000 0.409215
vn 0.912438 0.000000 0.409215
vn 0.912438 0.000000 0.409215
vn 0.912438 0.000000 0.409215
vn 0.919696 0.000280 -0.392632
vn 0.919696 0.000280 -0.392632
vn 0.919696 0.000280 -0.392632
vn 0.919696 0.000280 -0.392632
vn 0.000000 -1.000000 0.000000
vn 0.000000 -1.000000 0.000000
vn 0.000000 -1.000000 0.000000
vn 0.000000 -1.000000 0.000000
vn 0.000000 -1.000000 -0.000000
vn 0.000000 -1.000000 0.000000
vn 0.000000 -1.000000 -0.000000
vn 0.000000 -1.000000 -0.000000
vn 0.000000 1.000000 0.000000
vn 0.000000 1.000000 -0.000000
vn 0.000000 1.000000 0.000000
vn 0.000000 1.000000 0.000000
vn 0.000000 1.000000 0.000000
vn 0.000000 1.000000 -0.000000
vn 0.000000 1.000000 0.000000
vn 0.000000 1.000000 0.000000
vn 0.160144 0.000000 -0.987094
vn 0.160144 0.000000 -0.987094
vn 0.160144 0.000000 -0.987094
vn 0.160144 0.000000 -0.987094
vn -0.613951 0.000000 -0.789344
vn -0.613951 0.000000 -0.789344
vn -0.613951 0.000000 -0.789344
vn -0.613951 0.000000 -0.789344
vn -0.996581 0.000000 -0.082624
vn -0.996581 0.000000 -0.082624
vn -0.996581 0.000000 -0.082624
vn -0.996581 0.000000 -0.082624
vn -0.586096 0.000000 0.810242
vn -0.586096 0.000000 0.810242
vn -0.586096 0.000000 0.810242
vn -0.586096 0.000000 0.810242
vn 0.195338 0.000603 0.980736
vn 0.195338 0.000603 0.980736
vn 0.195338 0.000603 0.980736
vn 0.195338 0.000603 0.980736
vn 0.902865 0.000264 0.429924
vn 0.902865 0.000264 0.429924
vn 0.902865 0.000264 0.429924
vn 0.902865 0.000264 0.429924
vn 0.914306 0.000000 -0.405025
vn 0.914306 0.000000 -0.405025
vn 0.914306 0.000000 -0.405025
vn 0.914306 0.000000 -0.405025
vn 0.000000 -1.000000 -0.000000
vn 0.000000 -1.000000 -0.000000
vn 0.000000 -1.000000 -0.000000
vn 0.000000 -1.000000 0.000000
vn 0.000000 -1.000000 -0.000000
vn 0.000000 -1.000000 -0.000000
vn 0.000000 -1.000000 0.000000
vn 0.000000 -1.000000 -0.000000
vn 0.000000 1.000000 0.000000
vn 0.000000 1.000000 -0.000000
vn 0.000000 1.000000 -0.000000
vn 0.000000 1.000000 0.000000
vn 0.000000 1.000000 0.000000
vn 0.000000 1.000000 -0.000000
vn 0.000000 1.000000 -0.000000
vn 0.000000 1.000000 0.000000
vn 0.618007 0.000000 -0.786173
vn 0.618007 0.000000 -0.786173
vn 0.618007 0.000000 -0.786173
vn 0.618007 0.000000 -0.786173
vn -0.187900 0.000000 -0.982188
vn -0.187900 0.000000 -0.982188
vn -0.187900 0.000000 -0.982188
vn -0.187900 0.000000 -0.982188
vn -0.922411 -0.000165 -0.386209
vn -0.922411 -0.000165 -0.386209
vn -0.922411 -0.000165 -0.386209
vn -0.922411 -0.000165 -0.386209
vn -0.898478 0.000732 0.439019
vn -0.898478 0.000732 0.439019
vn -0.898478 0.000732 0.439019
vn -0.898478 0.000732 0.439019
vn -0.201765 0.002622 0.979431
vn -0.201765 0.002622 0.979431
vn -0.201765 0.002622 0.979431
vn -0.201765 0.002622 0.979431
vn 0.713975 0.001502 0.700169
vn 0.713975 0.001502 0.700169
vn 0.713975 0.001502 0.700169
vn 0.713975 0.001502 0.700169
vn 0.998566 -0.000038 -0.053530
vn 0.998566 -0.000038 -0.053530
vn 0.998566 -0.000038 -0.053530
vn 0.998566 -0.000038 -0.053530
vn 0.000000 -1.000000 0.000000
vn 0.000000 -1.000000 0.000000
vn 0.000000 -1.000000 -0.000000
vn 0.000000 -1.000000 0.000000
vn 0.000000 -1.000000 -0.000000
vn 0.000000 -1.000000 -0.000000
vn 0.000000 -1.000000 0.000000
vn 0.000000 -1.000000 0.000000
vn 0.000000 1.000000 0.000000
vn 0.000000 1.000000 -0.000000
vn 0.000000 1.000000 -0.000000
vn 0.000000 1.000000 -0.000000
vn 0.000000 1.000000 0.000000
vn 0.000000 1.000000 -0.000000
vn 0.000000 1.000000 -0.000000
vn 0.000000 1.000000 0.000000
vn 0.572315 -0.001198 -0.820033
vn 0.572314 -0.001198 -0.820033
vn 0.572314 -0.001198 -0.820033
vn 0.572314 -0.001198 -0.820033
vn -0.308806 0.000000 -0.951125
vn -0.308806 0.000000 -0.951125
vn -0.308806 0.000000 -0.951125
vn -0.308806 0.000000 -0.951125
vn -0.949784 0.000000 -0.312907
vn -0.949784 0.000000 -0.312907
vn -0.949784 0.000000 -0.312907
vn -0.949784 0.000000 -0.312907
vn -0.811851 0.000000 0.583865
vn -0.811851 0.000000 0.583865
vn -0.811851 0.000000 0.583865
vn -0.811851 0.000000 0.583865
vn -0.188458 0.001302 0.982080
vn -0.188458 0.001302 0.982080
vn -0.188458 0.001302 0.982080
vn -0.188458 0.001302 0.982080
vn 0.629570 0.002799 0.776939
vn 0.629570 0.002799 0.776939
vn 0.629570 0.002799 0.776939
vn 0.629570 0.002799 0.776939
vn 0.993845 -0.000414 -0.110781
vn 0.993845 -0.000414 -0.110781
vn 0.993845 -0.000414 -0.110781
vn 0.993845 -0.000414 -0.110781
vn 0.000000 -1.000000 -0.000000
vn 0.000000 -1.000000 0.000000
vn 0.000000 -1.000000 -0.000000
vn 0.000000 -1.000000 0.000000
vn 0.000000 -1.000000 -0.000000
vn 0.000000 -1.000000 0.000000
vn 0.000000 -1.000000 -0.000000
vn 0.000000 -1.000000 -0.000000
vn 0.000000 1.000000 0.000000
vn 0.000000 1.000000 -0.000000
vn 0.000000 1.000000 0.000000
vn 0.000000 1.000000 -0.000000
vn 0.000000 1.000000 0.000000
vn 0.000000 1.000000 0.000000
vn 0.000000 1.000000 -0.000000
vn 0.000000 1.000000 0.000000
s off
g polySurface42
usemtl initialShadingGroup
f 1/1/1 2/2/2 9/3/3 8/4/4
f 2/2/5 3/5/6 10/6/7 9/3/8
f 3/5/9 4/7/10 11/8/11 10/6/12
f 4/7/13 5/9/14 12/10/15 11/8/16
f 5/9/17 6/11/18 13/12/19 12/10/20
f 6/11/21 7/13/22 14/14/23 13/12/24
f 7/13/25 1/1/26 8/4/27 14/14/28
s 1
f 2/2/29 1/1/30 15/15/31
f 3/5/32 2/2/29 15/15/31
f 4/7/33 3/5/32 15/15/31
f 5/9/34 4/7/33 15/15/31
f 6/11/35 5/9/34 15/15/31
f 7/13/36 6/11/35 15/15/31
f 1/1/30 7/13/36 15/15/31
s 2
f 8/4/37 9/3/38 16/16/39
f 9/3/38 10/6/40 16/16/39
f 10/6/40 11/8/41 16/16/39
f 11/8/41 12/10/42 16/16/39
f 12/10/42 13/12/43 16/16/39
f 13/12/43 14/14/44 16/16/39
f 14/14/44 8/4/37 16/16/39
s off
f 17/17/45 18/18/46 25/19/47 24/20/48
f 18/18/49 19/21/50 26/22/51 25/19/52
f 19/21/53 20/23/54 27/24/55 26/22/56
f 20/23/57 21/25/58 28/26/59 27/24/60
f 21/25/61 22/27/62 29/28/63 28/26/64
f 22/27/65 23/29/66 30/30/67 29/28/68
f 23/29/69 17/17/70 24/20/71 30/30/72
s 3
f 18/18/73 17/17/74 31/31/75
f 19/21/76 18/18/73 31/31/75
f 20/23/77 19/21/76 31/31/75
f 21/25/78 20/23/77 31/31/75
f 22/27/79 21/25/78 31/31/75
f 23/29/80 22/27/79 31/31/75
f 17/17/74 23/29/80 31/31/75
s 4
f 24/20/81 25/19/82 32/32/83
f 25/19/82 26/22/84 32/32/83
f 26/22/84 27/24/85 32/32/83
f 27/24/85 28/26/86 32/32/83
f 28/26/86 29/28/87 32/32/83
f 29/28/87 30/30/88 32/32/83
f 30/30/88 24/20/81 32/32/83
s off
f 33/33/89 34/34/90 41/35/91 40/36/92
f 34/34/93 35/37/94 42/38/95 41/35/96
f 35/37/97 36/39/98 43/40/99 42/38/100
f 36/39/101 37/41/102 44/42/103 43/40/104
f 37/41/105 38/43/106 45/44/107 44/42/108
f 38/43/109 39/45/110 46/46/111 45/44/112
f 39/45/113 33/33/114 40/36/115 46/46/116
s 5
f 34/34/117 33/33/118 47/47/119
f 35/37/120 34/34/117 47/47/119
f 36/39/121 35/37/120 47/47/119
f 37/41/122 36/39/121 47/47/119
f 38/43/123 37/41/122 47/47/119
f 39/45/124 38/43/123 47/47/119
f 33/33/118 39/45/124 47/47/119
s 6
f 40/36/125 41/35/126 48/48/127
f 41/35/126 42/38/128 48/48/127
f 42/38/128 43/40/129 48/48/127
f 43/40/129 44/42/130 48/48/127
f 44/42/130 45/44/131 48/48/127
f 45/44/131 46/46/132 48/48/127
f 46/46/132 40/36/125 48/48/127
s off
f 49/49/133 50/50/134 57/51/135 56/52/136
f 50/50/137 51/53/138 58/54/139 57/51/140
f 51/53/141 52/55/142 59/56/143 58/54/144
f 52/55/145 53/57/146 60/58/147 59/56/148
f 53/57/149 54/59/150 61/60/151 60/58/152
f 54/59/153 55/61/154 62/62/155 61/60/156
f 55/61/157 49/49/158 56/52/159 62/62/160
s 7
f 50/50/161 49/49/162 63/63/163
f 51/53/164 50/50/161 63/63/163
f 52/55/165 51/53/164 63/63/163
f 53/57/166 52/55/165 63/63/163
f 54/59/167 53/57/166 63/63/163
f 55/61/168 54/59/167 63/63/163
f 49/49/162 55/61/168 63/63/163
s 8
f 56/52/169 57/51/170 64/64/171
f 57/51/170 58/54/172 64/64/171
f 58/54/172 59/56/173 64/64/171
f 59/56/173 60/58/174 64/64/171
f 60/58/174 61/60/175 64/64/171
f 61/60/175 62/62/176 64/64/171
f 62/62/176 56/52/169 64/64/171
