# This file uses centimeters as units for non-parametric coordinates.

mtllib pedestal collider.mtl
g default
v 3.691101 2.327165 0.679647
v 3.460716 2.327165 1.315228
v 2.975735 2.518915 1.089211
v 3.173941 2.518915 0.542406
v -2.869129 2.860568 1.656492
v -1.656493 2.860568 2.869129
v -0.000000 2.860568 3.312984
v 1.656491 2.860568 2.869129
v 2.869128 2.860568 1.656492
v 3.312984 2.860568 0.000000
v 2.869127 2.860568 -1.656492
v 1.656491 2.860568 -2.869127
v -0.000001 2.860568 -3.312984
v -1.656493 2.860568 -2.869127
v -2.869130 2.860568 -1.656492
v -3.312984 2.860568 0.000002
v 0.000000 2.860568 0.000000
v 6.802073 1.278801 -1.497522
v 6.802073 1.278801 1.240520
v 3.576551 2.614856 -1.455166
v 3.576550 2.614856 1.240520
v 4.272804 2.326458 -1.455166
v 4.272012 2.326786 1.368067
v 5.143525 1.965794 -1.356325
v 5.144061 1.965573 1.368067
v 6.044701 1.592515 -1.356327
v 6.049120 1.590684 1.240520
v 6.049122 1.590684 -0.057901
v 6.802074 1.278801 -0.057901
v 3.576551 2.614856 -0.057901
v 4.272805 2.326458 -0.057901
v 5.146441 1.964586 -0.057901
v 3.691101 1.259281 0.679647
v 3.460716 1.259281 1.315228
v 2.975735 1.451032 1.089211
v 3.173941 1.451032 0.542406
v -2.869129 1.792685 1.656492
v -1.656493 1.792685 2.869129
v -0.000000 1.792685 3.312984
v 1.656491 1.792685 2.869129
v 2.869128 1.792685 1.656492
v 3.312984 1.792685 0.000000
v 2.869127 1.792685 -1.656492
v 1.656491 1.792685 -2.869127
v -0.000001 1.792685 -3.312984
v -1.656493 1.792685 -2.869127
v -2.869130 1.792685 -1.656492
v -3.312984 1.792685 0.000002
v 0.000000 1.792685 0.000000
v 6.802073 0.210917 -1.497522
v 6.802073 0.210917 1.240520
v 3.576551 1.546973 -1.455166
v 3.576550 1.546973 1.240520
v 4.272804 1.258575 -1.455166
v 4.272012 1.258903 1.368067
v 5.143525 0.897910 -1.356325
v 5.144061 0.897689 1.368067
v 6.044701 0.524631 -1.356327
v 6.049120 0.522800 1.240520
v 6.049122 0.522800 -0.057901
v 6.802074 0.210917 -0.057901
v 3.576551 1.546973 -0.057901
v 4.272805 1.258575 -0.057901
v 5.146441 0.896703 -0.057901
vt 0.536388 0.548180
vt 0.594046 0.548559
vt 0.535656 0.616496
vt 0.595648 0.617699
vt 0.635316 0.921875
vt 0.578125 0.979066
vt 0.500000 0.837500
vt 0.500000 1.000000
vt 0.421875 0.979066
vt 0.364684 0.921875
vt 0.343750 0.843750
vt 0.364684 0.765625
vt 0.421875 0.708434
vt 0.500000 0.687500
vt 0.578125 0.708434
vt 0.635316 0.765625
vt 0.656250 0.843750
vt 0.425000 0.250000
vt 0.375000 0.250000
vt 0.425000 0.375000
vt 0.375000 0.375000
vt 0.375000 0.500000
vt 0.425000 0.500000
vt 0.625000 0.250000
vt 0.575000 0.250000
vt 0.625000 0.375000
vt 0.575000 0.375000
vt 0.575000 0.500000
vt 0.625000 0.500000
vt 0.525000 0.250000
vt 0.525000 0.375000
vt 0.525000 0.500000
vt 0.475000 0.250000
vt 0.475000 0.375000
vt 0.475000 0.500000
vt 0.595648 0.617699
vt 0.535656 0.616496
vt 0.536388 0.548180
vt 0.594046 0.548559
vt 0.635316 0.921875
vt 0.578125 0.979066
vt 0.500000 0.837500
vt 0.500000 1.000000
vt 0.421875 0.979066
vt 0.364684 0.921875
vt 0.343750 0.843750
vt 0.364684 0.765625
vt 0.421875 0.708434
vt 0.500000 0.687500
vt 0.578125 0.708434
vt 0.635316 0.765625
vt 0.656250 0.843750
vt 0.375000 0.250000
vt 0.425000 0.250000
vt 0.425000 0.375000
vt 0.375000 0.375000
vt 0.575000 0.250000
vt 0.625000 0.250000
vt 0.625000 0.375000
vt 0.575000 0.375000
vt 0.525000 0.250000
vt 0.525000 0.375000
vt 0.475000 0.250000
vt 0.475000 0.375000
vt 0.425000 0.500000
vt 0.375000 0.500000
vt 0.625000 0.500000
vt 0.575000 0.500000
vt 0.525000 0.500000
vt 0.475000 0.500000
vn 0.318268 0.940955 0.115366
vn 0.318268 0.940955 0.115366
vn 0.318268 0.940955 0.115366
vn 0.318268 0.940955 0.115366
vn 0.000000 1.000000 0.000000
vn 0.000000 1.000000 0.000000
vn 0.000000 1.000000 -0.000000
vn 0.000000 1.000000 -0.000000
vn 0.000000 1.000000 -0.000000
vn 0.000000 1.000000 0.000000
vn 0.000000 1.000000 0.000000
vn 0.000000 1.000000 0.000000
vn 0.000000 1.000000 0.000000
vn 0.000000 1.000000 -0.000000
vn 0.000000 1.000000 -0.000000
vn 0.000000 1.000000 0.000000
vn 0.000000 1.000000 0.000000
vn 0.382684 0.923879 -0.000000
vn 0.382684 0.923880 -0.000000
vn 0.382684 0.923879 -0.000000
vn 0.382684 0.923879 -0.000000
vn 0.419297 0.907294 -0.031738
vn 0.458380 0.886256 -0.066625
vn 0.469893 0.882702 0.006186
vn 0.419984 0.907527 -0.003026
vn 0.382684 0.923880 -0.000000
vn 0.382683 0.923880 -0.000000
vn 0.382683 0.923880 -0.000000
vn 0.382683 0.923880 -0.000000
vn 0.382684 0.923879 0.000000
vn 0.382684 0.923879 0.000001
vn 0.478080 0.875376 0.071812
vn 0.428344 0.902984 0.033775
vn 0.382683 0.923880 0.000000
vn 0.382683 0.923880 0.000000
vn 0.318269 0.940955 0.115366
vn 0.318269 0.940955 0.115366
vn 0.318269 0.940955 0.115366
vn 0.318269 0.940955 0.115366
vn 0.000000 -1.000000 -0.000000
vn 0.000000 -1.000000 0.000000
vn 0.000000 -1.000000 0.000000
vn 0.000000 -1.000000 -0.000000
vn 0.000000 -1.000000 -0.000000
vn 0.000000 -1.000000 0.000000
vn 0.000000 -1.000000 0.000000
vn 0.000000 -1.000000 -0.000000
vn 0.000000 -1.000000 0.000000
vn 0.000000 -1.000000 0.000000
vn 0.000000 -1.000000 0.000000
vn 0.000000 -1.000000 0.000000
vn 0.000000 -1.000000 -0.000000
vn -0.382683 -0.923880 0.000001
vn -0.382683 -0.923880 -0.000000
vn -0.382683 -0.923880 0.000000
vn -0.382683 -0.923880 0.000000
vn -0.419297 -0.907294 0.031738
vn -0.419984 -0.907527 0.003026
vn -0.469893 -0.882702 -0.006186
vn -0.458380 -0.886256 0.066624
vn -0.382684 -0.923879 0.000000
vn -0.382684 -0.923880 -0.000000
vn -0.382683 -0.923880 0.000000
vn -0.382683 -0.923880 0.000000
vn -0.382684 -0.923880 -0.000001
vn -0.382684 -0.923880 -0.000000
vn -0.428345 -0.902984 -0.033775
vn -0.478080 -0.875376 -0.071812
vn -0.382683 -0.923880 -0.000000
vn -0.382683 -0.923880 -0.000000
vn 0.273722 0.000000 -0.961809
vn 0.173810 0.000000 -0.984779
vn 0.111002 0.000000 -0.993820
vn 0.273722 0.000000 -0.961809
vn 0.048658 0.000000 -0.998816
vn 0.076458 0.000000 -0.997073
vn 0.069826 0.000000 -0.997559
vn 0.041671 0.000000 -0.999131
vn -0.062584 0.000000 -0.998040
vn -0.107999 0.000000 -0.994151
vn -0.183270 0.000000 -0.983063
vn -0.183270 0.000000 -0.983063
vn 1.000000 0.000000 -0.000001
vn 1.000000 0.000000 0.000000
vn 1.000000 0.000000 0.000000
vn 1.000000 0.000000 -0.000001
vn 1.000000 0.000000 0.000001
vn 1.000000 0.000000 0.000001
vn 0.000000 0.000000 1.000000
vn 0.093536 0.000000 0.995616
vn 0.059047 0.000000 0.998255
vn 0.000000 0.000000 1.000000
vn 0.054099 0.000000 0.998536
vn 0.088889 0.000000 0.996042
vn -0.103959 0.000000 0.994582
vn -0.059447 0.000000 0.998232
vn -0.180390 0.000000 0.983595
vn -0.180390 0.000000 0.983595
vn 0.506876 0.000000 0.862019
vn 0.655188 0.000000 0.755466
vn 0.639392 0.000000 0.768881
vn 0.506876 0.000000 0.862019
vn 0.707107 0.000000 0.707107
vn 0.707107 0.000000 0.707107
vn 0.258819 0.000000 0.965926
vn 0.258819 0.000000 0.965926
vn 0.258819 0.000000 0.965926
vn 0.258819 0.000000 0.965926
vn -0.258819 0.000000 0.965926
vn -0.258819 0.000000 0.965926
vn -0.258819 0.000000 0.965926
vn -0.258819 0.000000 0.965926
vn -0.707107 0.000000 0.707107
vn -0.707107 0.000000 0.707107
vn -0.707107 0.000000 0.707107
vn -0.707107 0.000000 0.707107
vn -0.965926 0.000000 0.258819
vn -0.965926 0.000000 0.258819
vn -0.965926 0.000000 0.258819
vn -0.965926 0.000000 0.258819
vn -0.965926 0.000000 -0.258818
vn -0.965926 0.000000 -0.258818
vn -0.965926 0.000000 -0.258818
vn -0.965926 0.000000 -0.258818
vn -0.707106 0.000000 -0.707107
vn -0.707106 0.000000 -0.707107
vn -0.707106 0.000000 -0.707107
vn -0.707106 0.000000 -0.707107
vn -0.258820 0.000000 -0.965926
vn -0.258820 0.000000 -0.965926
vn -0.258820 0.000000 -0.965926
vn -0.258820 0.000000 -0.965926
vn 0.258820 0.000000 -0.965926
vn 0.258820 0.000000 -0.965926
vn 0.258820 0.000000 -0.965926
vn 0.258820 0.000000 -0.965926
vn 0.707106 0.000000 -0.707107
vn 0.707106 0.000000 -0.707107
vn 0.707106 0.000000 -0.707107
vn 0.707106 0.000000 -0.707107
s off
g polySurface41
usemtl initialShadingGroup
f 4/4/1 3/3/2 2/1/3 1/2/4
s 1
f 5/5/5 6/6/6 17/7/7
f 6/6/6 7/8/8 17/7/7
f 7/8/8 8/9/9 17/7/7
f 8/9/9 9/10/10 17/7/7
f 9/10/10 10/11/11 17/7/7
f 10/11/11 11/12/12 17/7/7
f 11/12/12 12/13/13 17/7/7
f 12/13/13 13/14/14 17/7/7
f 13/14/14 14/15/15 17/7/7
f 14/15/15 15/16/16 17/7/7
f 15/16/16 16/17/17 17/7/7
f 16/17/17 5/5/5 17/7/7
s 2
f 18/19/18 26/18/19 28/20/20 29/21/21
f 20/25/22 11/24/23 10/26/24 30/27/25
f 22/30/26 20/25/22 30/27/25 31/31/27
f 24/33/28 22/30/26 31/31/27 32/34/29
f 26/18/19 24/33/28 32/34/29 28/20/20
f 29/21/21 28/20/20 27/23/30 19/22/31
f 30/27/25 10/26/24 9/29/32 21/28/33
f 31/31/27 30/27/25 21/28/33 23/32/34
f 32/34/29 31/31/27 23/32/34 25/35/35
f 28/20/20 32/34/29 25/35/35 27/23/30
s off
f 36/36/36 35/37/37 34/38/38 33/39/39
s 4
f 37/40/40 49/42/41 38/41/42
f 38/41/42 49/42/41 39/43/43
f 39/43/43 49/42/41 40/44/44
f 40/44/44 49/42/41 41/45/45
f 41/45/45 49/42/41 42/46/46
f 42/46/46 49/42/41 43/47/47
f 43/47/47 49/42/41 44/48/48
f 44/48/48 49/42/41 45/49/49
f 45/49/49 49/42/41 46/50/50
f 46/50/50 49/42/41 47/51/51
f 47/51/51 49/42/41 48/52/52
f 48/52/52 49/42/41 37/40/40
s 5
f 50/53/53 61/56/54 60/55/55 58/54/56
f 52/57/57 62/60/58 42/59/59 43/58/60
f 54/61/61 63/62/62 62/60/58 52/57/57
f 56/63/63 64/64/64 63/62/62 54/61/61
f 58/54/56 60/55/55 64/64/64 56/63/63
f 61/56/54 51/66/65 59/65/66 60/55/55
f 62/60/58 53/68/67 41/67/68 42/59/59
f 63/62/62 55/69/69 53/68/67 62/60/58
f 64/64/64 57/70/70 55/69/69 63/62/62
f 60/55/55 59/65/66 57/70/70 64/64/64
s 7
f 11/24/71 20/25/72 52/57/73 43/58/74
f 20/25/72 22/30/75 54/61/76 52/57/73
f 22/30/75 24/33/77 56/63/78 54/61/76
f 24/33/77 26/18/79 58/54/80 56/63/78
f 26/18/79 18/19/81 50/53/82 58/54/80
s 8
f 18/19/83 29/21/84 61/56/85 50/53/86
f 29/21/84 19/22/87 51/66/88 61/56/85
s 9
f 19/22/89 27/23/90 59/65/91 51/66/92
f 27/23/90 25/35/93 57/70/94 59/65/91
f 25/35/93 23/32/95 55/69/96 57/70/94
f 23/32/95 21/28/97 53/68/98 55/69/96
s 10
f 21/28/99 9/29/100 41/67/101 53/68/102
f 9/10/100 8/9/103 40/44/104 41/45/101
s off
f 8/9/105 7/8/106 39/43/107 40/44/108
f 7/8/109 6/6/110 38/41/111 39/43/112
f 6/6/113 5/5/114 37/40/115 38/41/116
f 5/5/117 16/17/118 48/52/119 37/40/120
f 16/17/121 15/16/122 47/51/123 48/52/124
f 15/16/125 14/15/126 46/50/127 47/51/128
f 14/15/129 13/14/130 45/49/131 46/50/132
f 13/14/133 12/13/134 44/48/135 45/49/136
f 12/13/137 11/24/138 43/47/139 44/48/140
