# This file uses centimeters as units for non-parametric coordinates.

mtllib Roots A.mtl
g default
v 2.880819 -0.987046 0.034153
v 3.017767 -0.841311 0.053575
v 3.017767 -1.103830 -0.055165
v 3.154713 -0.958094 -0.035742
v 2.912523 -1.657891 0.662681
v 3.049469 -1.568575 0.779465
v 3.049469 -1.677313 0.516945
v 3.186413 -1.587997 0.633730
v 3.008486 -2.155331 0.929923
v 3.137739 -2.026437 1.013889
v 3.096123 -2.126898 0.751370
v 3.225374 -1.998006 0.835338
v 3.266850 -2.484264 1.086077
v 3.396105 -2.355370 1.170044
v 3.354488 -2.455830 0.907524
v 3.483738 -2.326937 0.991492
v 3.325684 -2.793118 1.085247
v 3.483128 -2.815364 1.151255
v 3.391743 -2.797184 0.926314
v 3.549183 -2.819429 0.992323
v 3.299252 -3.500965 1.038785
v 3.297745 -2.584772 0.095605
v 3.434692 -2.439036 0.075866
v 3.434692 -2.701555 0.186386
v 3.571638 -2.555820 0.166645
v 3.329449 -3.004286 -0.373497
v 3.466394 -2.914969 -0.492189
v 3.466394 -3.023707 -0.225372
v 3.603338 -2.934391 -0.344072
v 3.425411 -3.501725 -0.814830
v 3.554665 -3.372831 -0.900166
v 3.513050 -3.473292 -0.633353
v 3.642300 -3.344400 -0.718692
v 3.575262 -4.355834 -0.798091
v 3.704515 -4.226940 -0.883434
v 3.662901 -4.327400 -0.616615
v 3.792150 -4.198507 -0.701956
v 3.993240 -4.871923 -0.765145
v 4.136509 -4.802949 -0.832236
v 4.050426 -4.838603 -0.603612
v 4.193691 -4.769631 -0.670701
v 4.400101 -4.996138 -0.925471
v 2.439650 -0.133290 -0.054569
v 2.617598 0.056077 -0.080219
v 2.617598 -0.253542 0.063390
v 2.795544 -0.064175 0.037739
v 2.487387 -0.622732 -0.664116
v 2.665333 -0.506675 -0.818344
v 2.665333 -0.647968 -0.471645
v 2.843277 -0.531912 -0.625882
v 2.612080 -1.269101 -1.237580
v 2.780031 -1.101616 -1.348464
v 2.725956 -1.232154 -1.001771
v 2.893904 -1.064673 -1.112659
v 3.113001 -1.892761 -1.215830
v 3.280952 -1.725277 -1.326724
v 3.226877 -1.855814 -0.980021
v 3.394823 -1.688332 -1.090913
v 3.185730 -2.424411 -1.173020
v 3.390308 -2.453318 -1.260196
v 3.271564 -2.429694 -0.963125
v 3.476141 -2.458600 -1.050300
v 3.364735 -3.344180 -1.381346
v 1.068213 0.298315 0.312692
v 2.189814 0.298315 0.258083
v 1.068213 0.611007 0.000000
v 2.189814 0.556397 0.000000
v 1.068213 0.298315 -0.312692
v 2.189814 0.298315 -0.258083
v 1.604753 -0.014378 0.000000
v 2.189814 0.040232 0.000000
v 2.531679 -0.408970 0.000000
v 2.690456 -0.225084 0.242950
v 2.690456 -0.225084 -0.242950
v 2.849234 -0.041197 0.000000
v 3.202696 -1.872823 -0.000000
v 3.372053 -1.826043 0.175699
v 3.372053 -1.826043 -0.175700
v 3.541410 -1.779263 -0.000000
v 3.377766 -2.878339 0.233052
v 3.514713 -2.840512 0.375126
v 3.514713 -2.840511 0.090977
v 3.651659 -2.802685 0.233052
v 3.409470 -4.178127 0.233051
v 3.546415 -4.140301 0.375126
v 3.546415 -4.140300 0.090977
v 3.683359 -4.102474 0.233051
v 3.634838 -4.929628 -0.045748
v 3.704927 -4.806045 0.096327
v 3.704924 -4.806045 -0.187823
v 3.775011 -4.682465 -0.045747
v 3.999413 -5.151544 -0.045748
v 4.069502 -5.027960 0.096327
v 4.069498 -5.027959 -0.187822
v 4.139585 -4.904379 -0.045748
v 4.728291 -5.149372 -0.231057
v 4.719395 -5.027959 -0.109320
v 4.719391 -5.027961 -0.352794
v 4.710495 -4.906551 -0.231057
v 5.427694 -5.027961 -0.231057
v 0.077900 -0.010449 0.000000
v -0.480181 -0.282844 0.312692
v -0.740175 -0.109122 0.000000
v -0.480181 -0.282844 -0.312692
vt 0.209061 0.811984
vt 0.214377 0.789477
vt 0.121298 0.689875
vt 0.100482 0.702764
vt 0.225276 0.772638
vt 0.139284 0.686273
vt 0.220013 0.795270
vt 0.118365 0.699309
vt 0.079114 0.614983
vt 0.062802 0.633210
vt 0.102976 0.618070
vt 0.086752 0.636512
vt 0.047367 0.561534
vt 0.030310 0.579639
vt 0.071496 0.564153
vt 0.054525 0.582472
vt 0.045194 0.512528
vt 0.029552 0.505764
vt 0.067150 0.510070
vt 0.051702 0.503214
vt 0.052472 0.402526
vt 0.197517 0.563854
vt 0.197194 0.543347
vt 0.269559 0.475296
vt 0.286547 0.485801
vt 0.180233 0.522432
vt 0.244270 0.469101
vt 0.180343 0.542939
vt 0.261097 0.479642
vt 0.338699 0.391169
vt 0.351582 0.407514
vt 0.308862 0.393517
vt 0.321435 0.410000
vt 0.335542 0.244948
vt 0.348642 0.259658
vt 0.305090 0.246381
vt 0.317866 0.261208
vt 0.327183 0.133818
vt 0.337565 0.136300
vt 0.299005 0.137199
vt 0.308983 0.139745
vt 0.352412 0.082822
vt 0.235261 0.938654
vt 0.234314 0.908712
vt 0.320823 0.840419
vt 0.341975 0.859193
vt 0.214695 0.893962
vt 0.291377 0.838194
vt 0.215356 0.924140
vt 0.312325 0.857200
vt 0.404456 0.747494
vt 0.420917 0.772680
vt 0.369285 0.753051
vt 0.385317 0.778521
vt 0.401641 0.651639
vt 0.418909 0.676538
vt 0.364643 0.656703
vt 0.381435 0.681892
vt 0.395435 0.567889
vt 0.409203 0.559691
vt 0.362270 0.566048
vt 0.375414 0.557761
vt 0.429629 0.416510
vt 0.206539 0.944006
vt 0.194957 0.963925
vt 0.230414 1.000000
vt 0.245748 0.983854
vt 0.266080 0.965087
vt 0.285253 0.945178
vt 0.230442 0.928919
vt 0.238817 0.912578
vt 0.257318 0.893593
vt 0.227995 0.856507
vt 0.265657 0.873908
vt 0.298473 0.857112
vt 0.225163 0.870688
vt 0.187627 0.898798
vt 0.257724 0.899615
vt 0.219942 0.928491
vt 0.213718 0.655127
vt 0.183430 0.661271
vt 0.237851 0.660974
vt 0.207353 0.667314
vt 0.174198 0.495786
vt 0.148823 0.498997
vt 0.193451 0.498229
vt 0.167921 0.501517
vt 0.173150 0.287299
vt 0.147496 0.288106
vt 0.192590 0.286644
vt 0.166778 0.287455
vt 0.212666 0.150996
vt 0.188200 0.168510
vt 0.234477 0.166615
vt 0.209917 0.184345
vt 0.205292 0.090212
vt 0.179820 0.108124
vt 0.227909 0.105944
vt 0.202334 0.124083
vt 0.222514 0.035551
vt 0.200533 0.060210
vt 0.244932 0.058047
vt 0.222879 0.082624
vt 0.206721 0.000000
vn 0.116317 0.705567 0.699032
vn -0.971290 0.140722 0.191815
vn -0.987023 0.035858 0.156525
vn -0.071284 0.606291 0.792042
vn 0.078684 -0.703060 -0.706764
vn -0.047962 -0.641027 -0.766018
vn 0.969457 0.196877 0.146263
vn 0.986728 0.151103 0.059454
vn -0.919445 -0.310397 0.241401
vn -0.107117 0.438316 0.892415
vn -0.188362 -0.473607 -0.860358
vn 0.948348 0.248457 -0.197243
vn -0.843129 -0.321955 0.430673
vn 0.323556 0.296062 0.898699
vn -0.072226 -0.291070 -0.953972
vn 0.915683 0.364418 -0.169485
vn -0.911120 -0.090515 0.402078
vn 0.506043 -0.066473 0.859943
vn -0.258679 -0.078223 -0.962791
vn 0.962446 -0.074693 -0.260995
vn -0.160935 -0.986861 -0.014357
vn -0.086678 -0.771784 0.629949
vn 0.973952 -0.132007 0.184369
vn 0.992756 -0.007112 0.119941
vn 0.122113 -0.694773 0.708787
vn -0.104052 0.774402 -0.624079
vn -0.043942 0.739650 -0.671556
vn -0.975481 -0.194539 0.102916
vn -0.992040 -0.125798 0.005614
vn 0.942551 0.088663 0.322082
vn -0.179220 -0.333635 0.925509
vn 0.209572 0.322605 -0.923042
vn -0.987559 -0.157127 -0.006202
vn 0.889951 0.380015 0.252145
vn -0.256866 -0.070863 0.963846
vn 0.440639 0.143815 -0.886089
vn -0.892458 -0.338624 -0.298082
vn 0.651540 0.679362 0.337585
vn -0.329344 -0.271275 0.904402
vn 0.189016 0.294857 -0.936660
vn -0.796570 -0.476295 -0.372315
vn -0.637334 0.761296 0.119302
vn -0.057956 -0.798686 0.598951
vn 0.982842 -0.099612 0.155242
vn 0.992525 -0.013997 0.121236
vn 0.135191 -0.704195 0.697017
vn -0.166935 0.785352 -0.596116
vn -0.079212 0.750338 -0.656292
vn -0.980088 -0.185738 0.070210
vn -0.990265 -0.139159 -0.003107
vn 0.870889 0.304409 0.385859
vn 0.073758 -0.388854 0.918342
vn 0.242657 0.461748 -0.853174
vn -0.918009 -0.380628 -0.111273
vn 0.828243 0.424043 0.366334
vn -0.442867 -0.137057 0.886050
vn 0.190992 0.079985 -0.978327
vn -0.871489 -0.406900 -0.273750
vn 0.941930 0.147902 0.301484
vn -0.506466 -0.048521 0.860894
vn 0.300723 0.150977 -0.941685
vn -0.942588 0.045633 -0.330825
vn 0.052582 0.992088 0.114001
vn -0.070842 0.125686 0.989537
vn 0.153249 0.224413 0.962369
vn 0.256809 0.966462 -0.000000
vn -0.201181 0.979554 -0.000000
vn 0.153249 0.224413 -0.962369
vn -0.070842 0.125686 -0.989537
vn -0.356135 -0.934435 -0.000000
vn 0.110325 -0.993896 -0.000000
vn 0.119748 -0.992804 0.000000
vn 0.119748 -0.992804 0.000000
vn 0.119748 -0.992804 0.000000
vn 0.119748 -0.992804 0.000000
vn -0.873213 -0.487340 0.000000
vn 0.181755 0.077029 0.980322
vn 0.181754 0.077029 -0.980322
vn 0.855739 0.517408 0.000000
vn -0.935430 -0.352226 -0.030133
vn 0.073593 0.073243 0.994595
vn 0.116740 -0.062246 -0.991210
vn 0.958536 0.283186 -0.031858
vn -0.995947 -0.077763 0.045186
vn 0.009918 0.082625 0.996531
vn 0.065035 -0.127677 -0.989681
vn 0.995825 0.077766 0.047812
vn -0.989593 -0.134427 0.051333
vn -0.021030 -0.112633 0.993414
vn -0.186061 0.099970 -0.977439
vn 0.997234 0.055149 0.049831
vn -0.838764 -0.530225 -0.123840
vn -0.069407 -0.280461 0.957353
vn -0.387650 0.088900 -0.917510
vn 0.867457 0.486629 -0.103496
vn -0.216968 -0.972917 0.079733
vn 0.149772 -0.217887 0.964414
vn -0.157700 -0.128105 -0.979142
vn 0.239853 0.968121 0.072197
vn 0.045557 -0.996285 -0.073076
vn 0.252548 -0.100150 0.962388
vn -0.108852 -0.006616 -0.994036
vn 0.039317 0.995588 -0.085196
vn 0.999296 0.037526 -0.000006
vn -0.259763 0.585760 0.767730
vn 0.184480 -0.982836 -0.000000
vn -0.361450 0.932391 0.000000
vn -0.259763 0.585760 -0.767730
s 1
g polySurface42
usemtl initialShadingGroup
f 2/1/1 1/2/2 5/3/3 6/4/4
f 1/2/2 3/5/5 7/6/6 5/3/3
f 3/5/5 4/7/7 8/8/8 7/6/6
f 4/7/7 2/1/1 6/4/4 8/8/8
f 6/4/4 5/3/3 9/9/9 10/10/10
f 5/3/3 7/6/6 11/11/11 9/9/9
f 7/6/6 8/8/8 12/12/12 11/11/11
f 8/8/8 6/4/4 10/10/10 12/12/12
f 10/10/10 9/9/9 13/13/13 14/14/14
f 9/9/9 11/11/11 15/15/15 13/13/13
f 11/11/11 12/12/12 16/16/16 15/15/15
f 12/12/12 10/10/10 14/14/14 16/16/16
f 14/14/14 13/13/13 17/17/17 18/18/18
f 13/13/13 15/15/15 19/19/19 17/17/17
f 15/15/15 16/16/16 20/20/20 19/19/19
f 16/16/16 14/14/14 18/18/18 20/20/20
f 18/18/18 17/17/17 21/21/21
f 17/17/17 19/19/19 21/21/21
f 19/19/19 20/20/20 21/21/21
f 20/20/20 18/18/18 21/21/21
s 2
f 23/22/22 22/23/23 26/24/24 27/25/25
f 22/23/23 24/26/26 28/27/27 26/24/24
f 24/26/26 25/28/28 29/29/29 28/27/27
f 25/28/28 23/22/22 27/25/25 29/29/29
f 27/25/25 26/24/24 30/30/30 31/31/31
f 26/24/24 28/27/27 32/32/32 30/30/30
f 28/27/27 29/29/29 33/33/33 32/32/32
f 29/29/29 27/25/25 31/31/31 33/33/33
f 31/31/31 30/30/30 34/34/34 35/35/35
f 30/30/30 32/32/32 36/36/36 34/34/34
f 32/32/32 33/33/33 37/37/37 36/36/36
f 33/33/33 31/31/31 35/35/35 37/37/37
f 35/35/35 34/34/34 38/38/38 39/39/39
f 34/34/34 36/36/36 40/40/40 38/38/38
f 36/36/36 37/37/37 41/41/41 40/40/40
f 37/37/37 35/35/35 39/39/39 41/41/41
f 39/39/39 38/38/38 42/42/42
f 38/38/38 40/40/40 42/42/42
f 40/40/40 41/41/41 42/42/42
f 41/41/41 39/39/39 42/42/42
s 3
f 44/43/43 43/44/44 47/45/45 48/46/46
f 43/44/44 45/47/47 49/48/48 47/45/45
f 45/47/47 46/49/49 50/50/50 49/48/48
f 46/49/49 44/43/43 48/46/46 50/50/50
f 48/46/46 47/45/45 51/51/51 52/52/52
f 47/45/45 49/48/48 53/53/53 51/51/51
f 49/48/48 50/50/50 54/54/54 53/53/53
f 50/50/50 48/46/46 52/52/52 54/54/54
f 52/52/52 51/51/51 55/55/55 56/56/56
f 51/51/51 53/53/53 57/57/57 55/55/55
f 53/53/53 54/54/54 58/58/58 57/57/57
f 54/54/54 52/52/52 56/56/56 58/58/58
f 56/56/56 55/55/55 59/59/59 60/60/60
f 55/55/55 57/57/57 61/61/61 59/59/59
f 57/57/57 58/58/58 62/62/62 61/61/61
f 58/58/58 56/56/56 60/60/60 62/62/62
f 60/60/60 59/59/59 63/63/63
f 59/59/59 61/61/61 63/63/63
f 61/61/61 62/62/62 63/63/63
f 62/62/62 60/60/60 63/63/63
s 4
f 64/64/64 65/65/65 67/66/66 66/67/67
f 66/67/67 67/66/66 69/68/68 68/69/69
f 68/69/69 69/68/68 71/70/70 70/71/71
f 70/71/71 71/70/70 65/65/65 64/64/64
s off
f 101/72/72 102/73/73 103/74/74 104/75/75
s 4
f 65/65/65 71/70/70 72/76/76 73/77/77
f 71/70/70 69/68/68 74/78/78 72/76/76
f 69/68/68 67/66/66 75/79/79 74/78/78
f 67/66/66 65/65/65 73/77/77 75/79/79
f 73/77/77 72/76/76 76/80/80 77/81/81
f 72/76/76 74/78/78 78/82/82 76/80/80
f 74/78/78 75/79/79 79/83/83 78/82/82
f 75/79/79 73/77/77 77/81/81 79/83/83
f 77/81/81 76/80/80 80/84/84 81/85/85
f 76/80/80 78/82/82 82/86/86 80/84/84
f 78/82/82 79/83/83 83/87/87 82/86/86
f 79/83/83 77/81/81 81/85/85 83/87/87
f 81/85/85 80/84/84 84/88/88 85/89/89
f 80/84/84 82/86/86 86/90/90 84/88/88
f 82/86/86 83/87/87 87/91/91 86/90/90
f 83/87/87 81/85/85 85/89/89 87/91/91
f 85/89/89 84/88/88 88/92/92 89/93/93
f 84/88/88 86/90/90 90/94/94 88/92/92
f 86/90/90 87/91/91 91/95/95 90/94/94
f 87/91/91 85/89/89 89/93/93 91/95/95
f 89/93/93 88/92/92 92/96/96 93/97/97
f 88/92/92 90/94/94 94/98/98 92/96/96
f 90/94/94 91/95/95 95/99/99 94/98/98
f 91/95/95 89/93/93 93/97/97 95/99/99
f 93/97/97 92/96/96 96/100/100 97/101/101
f 92/96/96 94/98/98 98/102/102 96/100/100
f 94/98/98 95/99/99 99/103/103 98/102/102
f 95/99/99 93/97/97 97/101/101 99/103/103
f 97/101/101 96/100/100 100/104/104
f 96/100/100 98/102/102 100/104/104
f 98/102/102 99/103/103 100/104/104
f 99/103/103 97/101/101 100/104/104
f 70/71/71 64/64/64 102/73/105 101/72/106
f 64/64/64 66/67/67 103/74/107 102/73/105
f 66/67/67 68/69/69 104/75/108 103/74/107
f 68/69/69 70/71/71 101/72/106 104/75/108
